<?xml version="1.0" encoding="UTF-8" standalone="no"?>
<!-- Created with Inkscape (http://www.inkscape.org/) -->

<svg
   width="178.11754mm"
   height="6.1416798mm"
   viewBox="0 0 178.11754 6.1416797"
   version="1.1"
   id="svg5"
   inkscape:version="1.1.1 (3bf5ae0d25, 2021-09-20)"
   sodipodi:docname="linea_encabezado.svg"
   inkscape:export-filename="/home/maurodonna/Documentos/mauro_pr/Ejercicios de programación propios/Mi Blog/encabezado.png"
   inkscape:export-xdpi="150"
   inkscape:export-ydpi="150"
   xmlns:inkscape="http://www.inkscape.org/namespaces/inkscape"
   xmlns:sodipodi="http://sodipodi.sourceforge.net/DTD/sodipodi-0.dtd"
   xmlns="http://www.w3.org/2000/svg"
   xmlns:svg="http://www.w3.org/2000/svg">
  <sodipodi:namedview
     id="namedview7"
     pagecolor="#ffffff"
     bordercolor="#666666"
     borderopacity="1.0"
     inkscape:pageshadow="2"
     inkscape:pageopacity="0.0"
     inkscape:pagecheckerboard="false"
     inkscape:document-units="mm"
     showgrid="false"
     fit-margin-top="0"
     fit-margin-left="0"
     fit-margin-right="0"
     fit-margin-bottom="0"
     inkscape:zoom="2.3579016"
     inkscape:cx="197.20925"
     inkscape:cy="-8.906224"
     inkscape:window-width="1920"
     inkscape:window-height="1011"
     inkscape:window-x="0"
     inkscape:window-y="0"
     inkscape:window-maximized="1"
     inkscape:current-layer="layer1" />
  <defs
     id="defs2" />
  <g
     inkscape:label="Capa 1"
     inkscape:groupmode="layer"
     id="layer1"
     transform="translate(-14.448239,-131.54208)">
    <path
       style="fill:#660080;stroke-width:0.373899;stroke-linejoin:round"
       id="path997"
       d="m 14.448239,137.68376 c 2.673013,-0.0578 5.34758,-0.0703 8.021302,-0.10446 7.192361,-0.0537 14.385159,-0.0634 21.57774,-0.094 9.785188,-0.003 19.570256,-0.0349 29.355404,-0.0512 11.57062,0.006 23.141154,-0.0255 34.711745,-0.0372 7.61123,-0.0194 15.22228,0.0455 22.83348,0.0407 3.83695,-0.002 7.67386,-0.018 11.51081,-0.021 7.1292,-0.0436 14.25994,0.0928 21.38863,-0.011 3.45417,-0.0503 5.15534,-0.12055 8.52197,-0.23149 3.35462,-0.16059 6.73711,-0.35851 9.99858,-1.00744 1.07669,-0.21422 1.35083,-0.3112 2.32639,-0.5892 2.07508,-0.73835 1.27086,-0.43241 4.90974,-2.08593 0.17714,-0.0805 0.326,-0.19172 0.48558,-0.29076 0.41338,-0.25658 0.80101,-0.53295 1.18843,-0.81096 0.41749,-0.29225 0.80671,-0.61354 1.28774,-0.84774 0,0 -3.95954,1.18204 -3.95954,1.18204 v 0 c -0.4235,0.27584 -0.81904,0.57477 -1.22298,0.86643 -0.38217,0.26774 -0.76588,0.53389 -1.18184,0.77246 -0.15641,0.0897 -0.65263,0.32873 -0.47901,0.25914 0.73803,-0.29584 4.59641,-1.93176 2.17728,-0.9374 -1.02213,0.32893 -1.27655,0.43262 -2.41343,0.69204 -3.35323,0.76514 -6.85852,1.0445 -10.33687,1.26473 -3.87892,0.18438 -4.65255,0.24491 -8.6809,0.33111 -7.17477,0.15353 -14.3549,0.0521 -21.53115,0.0929 -3.81134,-0.003 -7.62267,-0.0185 -11.43403,-0.0209 -7.66099,-0.005 -15.32183,0.0599 -22.98283,0.0407 -11.525121,-0.0117 -23.050204,-0.0435 -34.575361,-0.0372 -9.722596,-0.0163 -19.445113,-0.0483 -29.167745,-0.0512 -7.077604,-0.0306 -14.155427,-0.04 -21.232798,-0.094 -2.545944,-0.0342 -5.092872,-0.0455 -7.638008,-0.10446 0,0 -3.458329,1.88511 -3.458329,1.88511 z"
       inkscape:export-filename="/home/maurodonna/Documentos/mauro_pr/Ejercicios de programación propios/Mi Blog/linea_enc.png"
       inkscape:export-xdpi="130"
       inkscape:export-ydpi="130" />
  </g>
</svg>
